<svg xmlns="http://www.w3.org/2000/svg" viewBox="0 0 860 220" role="img" aria-labelledby="title desc">
  <title id="title">CDP AI Assistant wordmark</title>
  <desc id="desc">CDP AI Assistant wordmark with Belgian customer intelligence subtitle.</desc>
  <defs>
    <linearGradient id="panel" x1="8%" x2="92%" y1="10%" y2="92%">
      <stop offset="0%" stop-color="#16324f" />
      <stop offset="100%" stop-color="#24507e" />
    </linearGradient>
    <linearGradient id="spark" x1="0%" x2="100%" y1="0%" y2="100%">
      <stop offset="0%" stop-color="#f4b942" />
      <stop offset="100%" stop-color="#ffd877" />
    </linearGradient>
  </defs>
  <rect x="0" y="20" width="180" height="180" rx="52" fill="url(#panel)" />
  <path d="M38 144c12-45 45-86 91-93 11-1 20 7 20 18v61c0 10-8 18-18 18H38v-4z" fill="#f7f3e7" opacity="0.97" />
  <path d="M57 131c8-27 29-52 61-57 8-1 15 5 15 13v39c0 8-6 13-13 13H57v-8z" fill="#2a9d8f" opacity="0.94" />
  <circle cx="122" cy="76" r="18" fill="url(#spark)" />
  <path d="M71 95h18c8 0 14 6 14 14s-6 14-14 14H71z" fill="#16324f" />
  <path d="M71 95h20c8 0 14 6 14 14s-6 14-14 14H71" fill="none" stroke="#f7f3e7" stroke-linecap="round" stroke-linejoin="round" stroke-width="10" />
  <path d="M100 82h16c22 0 40 18 40 40s-18 40-40 40h-16" fill="none" stroke="#16324f" stroke-linecap="round" stroke-linejoin="round" stroke-width="11" />
  <path d="M100 82h16c22 0 40 18 40 40s-18 40-40 40h-16" fill="none" stroke="#f4b942" stroke-linecap="round" stroke-linejoin="round" stroke-width="7" />
  <text x="220" y="102" fill="#16324f" font-family="Manrope, sans-serif" font-size="78" font-weight="800" letter-spacing="-2">CDP AI Assistant</text>
  <text x="222" y="152" fill="#5a7188" font-family="Manrope, sans-serif" font-size="28" font-weight="700" letter-spacing="6">BELGIAN CUSTOMER INTELLIGENCE</text>
</svg>
